<?xml version="1.0" standalone="no"?>
<!DOCTYPE svg PUBLIC "-//W3C//DTD SVG 20010904//EN"
 "http://www.w3.org/TR/2001/REC-SVG-20010904/DTD/svg10.dtd">
<svg version="1.0" xmlns="http://www.w3.org/2000/svg"
 width="260.000000pt" height="260.000000pt" viewBox="0 0 260.000000 260.000000"
 preserveAspectRatio="xMidYMid meet">
<metadata>
Created by potrace 1.11, written by Peter Selinger 2001-2013
</metadata>
<g transform="translate(0.000000,260.000000) scale(0.100000,-0.100000)"
fill="#000000" stroke="none">
<path d="M0 1300 l0 -1300 1300 0 1300 0 0 1300 0 1300 -1300 0 -1300 0 0
-1300z m2380 984 l24 -36 -30 -27 c-192 -166 -261 -231 -363 -344 -348 -384
-653 -810 -849 -1183 l-67 -128 -122 -86 c-67 -47 -133 -96 -147 -109 -14 -14
-28 -23 -30 -20 -2 2 -11 29 -21 59 -29 88 -122 306 -181 420 -68 135 -133
215 -208 260 l-59 34 44 39 c131 117 240 154 316 108 52 -32 112 -118 177
-253 33 -70 63 -128 66 -128 3 0 33 44 67 98 252 398 714 891 1090 1164 86 61
252 168 262 168 3 0 17 -16 31 -36z"/>
</g>
</svg>
